<svg width="140" height="140" viewBox="0 0 140 140" fill="none" xmlns="http://www.w3.org/2000/svg">
<path fill-rule="evenodd" clip-rule="evenodd" d="M66.36 13.7039C66.36 14.1463 65.4013 14.28 62.2314 14.28C59.1062 14.28 59.0506 14.2853 58.8 14.595C58.563 14.8876 58.4139 14.9135 56.6881 14.9597C55.0182 15.0045 54.8075 15.0385 54.5986 15.2964C54.4075 15.5323 54.1565 15.5957 53.1947 15.6513C52.2399 15.7066 51.9809 15.7714 51.7947 16.0013C51.6082 16.2313 51.3492 16.2964 50.3947 16.3513C49.4644 16.4052 49.1785 16.4742 49.0066 16.6863C48.8568 16.8711 48.5324 16.9799 47.9538 17.0394C47.3795 17.0986 47.0508 17.2081 46.9038 17.3894C46.7568 17.5707 46.4282 17.6803 45.8538 17.7394C45.2795 17.7986 44.9508 17.9081 44.8038 18.0894C44.6565 18.2714 44.3289 18.3799 43.75 18.4387C43.1872 18.4961 42.8533 18.6039 42.7385 18.766C42.644 18.899 42.3353 19.0509 42.0525 19.1041C41.7697 19.1573 41.4375 19.3249 41.314 19.4768C41.1554 19.6728 40.8453 19.7782 40.25 19.8387C39.6872 19.8961 39.3533 20.0039 39.2385 20.166C39.144 20.299 38.8311 20.4519 38.543 20.5058C38.2553 20.5597 37.9403 20.7172 37.843 20.8558C37.7461 20.9944 37.4311 21.1519 37.143 21.2058C36.8553 21.2597 36.5403 21.4172 36.443 21.5558C36.3461 21.6944 36.0311 21.8519 35.743 21.9058C35.4553 21.9597 35.1403 22.1172 35.043 22.2558C34.9461 22.3944 34.6402 22.5502 34.363 22.602C34.0284 22.665 33.6633 22.8995 33.2748 23.302C32.9094 23.68 32.5062 23.9467 32.2 24.0125C31.9305 24.0702 31.6326 24.2277 31.5385 24.3625C31.444 24.4972 31.1402 24.6502 30.863 24.702C30.5284 24.765 30.1633 24.9995 29.7748 25.402C29.4224 25.7667 29.0041 26.047 28.722 26.1076C28.4039 26.1758 27.9562 26.5108 27.322 27.1558C26.699 27.7893 26.2374 28.1369 25.9297 28.2041C25.2588 28.3507 16.4507 37.1588 16.304 37.8298C16.2368 38.1374 15.8893 38.5991 15.2558 39.2221C14.6107 39.8563 14.2758 40.3039 14.2075 40.6221C14.147 40.9042 13.8666 41.3224 13.5019 41.6749C13.0994 42.0634 12.8649 42.4284 12.8019 42.763C12.7501 43.0402 12.5944 43.3461 12.4558 43.4431C12.3172 43.5404 12.1597 43.8554 12.1058 44.1431C12.0519 44.4311 11.8944 44.7461 11.7558 44.8431C11.6172 44.9404 11.4597 45.2554 11.4058 45.5431C11.3519 45.8311 11.1944 46.1461 11.0558 46.2431C10.9172 46.3404 10.7597 46.6554 10.7058 46.9431C10.6519 47.2311 10.4986 47.544 10.3652 47.6385C10.2168 47.7435 10.0936 48.0715 10.0474 48.4838C10.0037 48.8775 9.85561 49.2846 9.69111 49.4638C9.53606 49.6321 9.36561 50.0381 9.31241 50.3657C9.25886 50.6933 9.10451 51.0398 8.96976 51.1357C8.80351 51.2537 8.69641 51.5813 8.63866 52.15C8.57951 52.7331 8.47171 53.0562 8.28621 53.2067C8.07411 53.3785 8.00516 53.6645 7.95126 54.5948C7.89561 55.5597 7.83261 55.8075 7.59426 56.0004C7.33806 56.2079 7.29991 56.4186 7.25756 57.8564C7.21486 59.3096 7.17706 59.513 6.89496 59.8133C6.59046 60.137 6.57996 60.2385 6.57996 62.9052V65.6621L16.1325 65.6261L25.6851 65.59L25.7719 65.0577C25.8226 64.7437 25.9815 64.4392 26.159 64.315C26.4043 64.1431 26.46 63.9632 26.46 63.3413C26.46 62.7018 26.5167 62.5289 26.81 62.2738C27.0291 62.0834 27.16 61.8216 27.16 61.5738C27.16 61.3263 27.2909 61.0642 27.51 60.8738C27.7249 60.6872 27.86 60.4209 27.86 60.1846C27.86 59.906 28.0532 59.6131 28.5593 59.1248C29.065 58.6369 29.2586 58.3433 29.2593 58.064C29.2596 57.8277 29.3954 57.5603 29.61 57.3738C29.8249 57.1872 29.96 56.9209 29.96 56.6846C29.96 56.406 30.1532 56.1131 30.6593 55.6248C31.1556 55.146 31.3586 54.8412 31.3593 54.5748C31.3596 54.3085 31.563 54.0036 32.0593 53.5248C32.5521 53.0492 32.7586 52.7405 32.7593 52.4783C32.7596 52.2015 33.027 51.8448 33.8079 51.0783C34.58 50.3209 34.8565 49.9534 34.8579 49.6829C34.8596 49.3976 35.3272 48.8499 36.96 47.2213C38.5889 45.5963 39.06 45.045 39.06 44.7633C39.06 44.2992 39.3991 43.96 39.8629 43.96C40.1467 43.96 40.7603 43.4245 42.6713 41.51C44.5917 39.5861 45.1955 39.06 45.4835 39.0593C45.7394 39.0586 46.0537 38.8476 46.5248 38.3593C47.0036 37.863 47.3084 37.6597 47.5748 37.6593C47.8411 37.6586 48.146 37.4556 48.6248 36.9593C49.1267 36.4389 49.4025 36.26 49.7017 36.26C49.9548 36.26 50.1823 36.1484 50.3149 35.959C50.4392 35.7816 50.744 35.6227 51.0576 35.5719C52.1013 35.4022 51.5634 35.2433 49.8897 35.2268C48.4354 35.2125 48.147 35.1719 47.8978 34.9465L47.6066 34.6826L47.9552 34.2465C48.1474 34.0064 48.3686 33.7313 48.4477 33.635C48.5264 33.5388 48.7616 33.4597 48.9706 33.4593C49.2418 33.4586 49.5421 33.2595 50.0248 32.7593C50.513 32.2532 50.806 32.06 51.0846 32.06C51.3208 32.06 51.5872 31.9249 51.7737 31.71C51.9641 31.4909 52.2263 31.36 52.4737 31.36C52.7215 31.36 52.9833 31.2291 53.1737 31.01C53.3641 30.7909 53.6263 30.66 53.8737 30.66C54.1215 30.66 54.3833 30.5291 54.5737 30.31C54.8271 30.0185 55.0028 29.96 55.6237 29.96C56.2446 29.96 56.4203 29.9016 56.6737 29.61C56.9271 29.3185 57.1028 29.26 57.7237 29.26C58.3446 29.26 58.5203 29.2016 58.7737 28.91L59.0782 28.56H61.8331C65.1777 28.56 65.3341 28.6188 64.6579 29.6209C64.4283 29.9614 64.1886 30.24 64.1256 30.24C64.0626 30.24 63.967 30.4763 63.9131 30.765C63.8456 31.1259 63.6247 31.4727 63.2058 31.8749C62.8082 32.2564 62.5649 32.6284 62.5054 32.9459C62.455 33.2133 62.2625 33.564 62.077 33.725C61.8915 33.8863 61.74 34.124 61.74 34.2531C61.74 35.035 60.6256 34.9132 60.1583 34.0802C60.0971 33.9707 59.7954 33.8412 59.4884 33.7918C59.1535 33.7383 58.8738 33.5979 58.7898 33.4415C58.7132 33.2976 58.5924 33.18 58.5221 33.18C58.1959 33.18 54.2017 37.3821 54.1037 37.8284C54.0326 38.1518 53.6189 38.6677 52.7051 39.5728C51.7751 40.4936 51.3786 40.9903 51.3072 41.3242C51.2473 41.6028 50.9666 42.0228 50.6082 42.3686C50.2467 42.7179 49.9695 43.134 49.9082 43.4186C49.847 43.7045 49.5691 44.1203 49.2019 44.4749C48.7994 44.8634 48.5649 45.2284 48.5019 45.563C48.4501 45.8402 48.2944 46.1461 48.1558 46.2431C48.0172 46.3404 47.8597 46.6554 47.8058 46.9431C47.7519 47.2311 47.5944 47.5461 47.4558 47.6431C47.3172 47.7404 47.1597 48.0554 47.1058 48.3431C47.0519 48.6311 46.8989 48.944 46.7659 49.0385C46.6039 49.1533 46.4961 49.4872 46.4387 50.05C46.3795 50.6331 46.2717 50.9562 46.0862 51.1067C45.8741 51.2785 45.8052 51.5645 45.7513 52.4948C45.6953 53.4674 45.6337 53.7065 45.389 53.9046C45.102 54.1373 45.0933 54.2612 45.0523 58.7605C45.0187 62.4201 44.9701 63.4253 44.8178 63.6087C44.5434 63.9391 43.5925 63.9198 43.4108 63.5807C43.3083 63.3885 43.0433 63.2972 42.3909 63.2293C41.7791 63.1656 41.4459 63.0574 41.3 62.8761C41.1568 62.6976 40.8233 62.5863 40.25 62.5254C39.6368 62.4603 39.3582 62.3613 39.2178 62.1583C39.0631 61.9339 38.8661 61.88 38.2028 61.88C37.3719 61.88 37.1616 62.0333 37.6414 62.2899C37.7982 62.3739 37.9382 62.6535 37.9921 62.9906C38.046 63.3259 38.1864 63.6069 38.3418 63.6902C38.4877 63.7683 38.6372 64.0479 38.6827 64.329C38.7439 64.7063 38.9966 65.0584 39.7169 65.7692C40.2409 66.2865 40.8065 66.9099 40.9731 67.1538L41.2765 67.598L40.9937 67.8538C40.7232 68.0988 39.9535 68.1118 23.6453 68.1471L6.57996 68.1842V76.0225V83.8604L70.385 83.825L134.19 83.79L134.226 75.985L134.262 68.18L119.386 68.1636C102.912 68.145 103.918 68.194 103.336 67.3862L102.915 66.8028L103.252 66.5812C103.554 66.3838 104.958 66.36 116.397 66.36H129.204L129.424 66.045C129.634 65.7458 129.759 65.7265 131.917 65.66L134.19 65.59L134.26 63.5194C134.315 61.8863 134.374 61.4212 134.54 61.3165C134.708 61.2112 134.685 61.1839 134.426 61.1821C133.608 61.1769 133.56 61.0547 133.56 58.9862C133.56 57.1351 133.55 57.0731 133.21 56.7578C132.895 56.4659 132.86 56.3252 132.86 55.3578C132.86 54.3904 132.825 54.2497 132.51 53.9578C132.202 53.6725 132.16 53.5178 132.16 52.6719C132.16 51.821 132.12 51.6754 131.81 51.4063C131.557 51.1858 131.46 50.9614 131.46 50.5922C131.46 50.2278 131.36 49.9895 131.11 49.7578C130.671 49.3504 130.605 48.2643 131.005 48.0312C131.21 47.9115 131.181 47.8877 130.823 47.8842C130.103 47.8772 129.655 46.7464 130.305 46.5766C130.44 46.5413 130.359 46.5052 130.123 46.4961C129.564 46.4751 129.36 46.2518 129.36 45.6631C129.36 45.3299 129.253 45.0825 129.01 44.8578C128.807 44.6691 128.66 44.3783 128.66 44.1627C128.66 43.903 128.451 43.5876 127.96 43.1067C127.475 42.6318 127.26 42.3098 127.26 42.0567C127.26 41.804 127.045 41.482 126.56 41.0067C126.077 40.5335 125.86 40.2091 125.86 39.9588C125.86 39.6935 125.579 39.3176 124.81 38.5564C124.05 37.8039 123.76 37.4182 123.76 37.1599C123.76 36.8795 122.936 35.9804 119.91 32.956C115.483 28.5327 115.605 28.7385 116.759 27.6248C117.259 27.1425 117.459 26.8419 117.459 26.5706C117.46 26.3379 117.608 26.054 117.844 25.8356L118.227 25.48H115.166H112.105L112.191 25.9091C112.303 26.4688 112.999 27.16 113.45 27.16C114.533 27.16 116.117 29.6097 115.372 30.1319C115.225 30.2351 115.061 30.5473 115.009 30.8259C114.957 31.1042 114.763 31.464 114.577 31.625C114.392 31.7863 114.24 32.024 114.24 32.1531C114.24 33.0789 113.514 32.8976 112.329 31.675C111.299 30.6114 111.476 30.498 106.699 35.2748C103.416 38.5585 102.483 39.5693 102.406 39.9298C102.348 40.2021 102.063 40.6259 101.708 40.9686C101.347 41.3179 101.069 41.734 101.008 42.0186C100.947 42.3045 100.669 42.7203 100.302 43.0749C99.8994 43.4634 99.6649 43.8284 99.6019 44.163C99.5501 44.4402 99.3944 44.7461 99.2558 44.8431C99.1172 44.9404 98.9597 45.2554 98.9058 45.5431C98.8519 45.8311 98.6944 46.1461 98.5558 46.2431C98.4172 46.3404 98.2597 46.6554 98.2058 46.9431C98.1519 47.2311 97.9944 47.5461 97.8558 47.6431C97.7172 47.7404 97.5597 48.0554 97.5058 48.3431C97.4519 48.6311 97.2989 48.944 97.1659 49.0385C97.0039 49.1533 96.8961 49.4872 96.8387 50.05C96.7795 50.6331 96.6717 50.9562 96.4862 51.1067C96.2741 51.2785 96.2052 51.5645 96.1513 52.4948C96.0956 53.4611 96.033 53.7072 95.7936 53.9011C95.5227 54.1205 95.5003 54.3053 95.4565 56.6906C95.4117 59.143 95.3974 59.2554 95.095 59.5C94.878 59.6757 94.78 59.9057 94.78 60.2403C94.78 60.5885 94.8692 60.7849 95.095 60.935C95.4817 61.1919 95.5794 63.8722 95.2178 64.3083C94.9438 64.6391 93.9928 64.6202 93.8108 64.2807C93.7083 64.0885 93.4433 63.9972 92.7909 63.9293C92.1791 63.8656 91.8459 63.7574 91.7 63.5761C91.5568 63.3976 91.2233 63.2863 90.65 63.2254C90.0368 63.1603 89.7582 63.0613 89.6178 62.8583C89.2965 62.3928 89.18 62.5408 89.18 63.4151C89.18 64.0871 89.2311 64.2775 89.4414 64.3899C89.5982 64.4739 89.7382 64.7535 89.7921 65.0906C89.846 65.4266 89.9864 65.7069 90.1421 65.7906C90.3024 65.8763 90.4393 66.1591 90.4981 66.5263C90.5502 66.8542 90.6853 67.2245 90.7977 67.3488C90.9786 67.5483 90.9681 67.6057 90.7063 67.8423C90.2426 68.2619 78.7657 68.2581 78.4588 67.8384C78.1476 67.4128 78.2138 66.8185 78.61 66.4738C78.8291 66.2834 78.96 66.0216 78.96 65.7738C78.96 65.5263 79.0909 65.2642 79.31 65.0738C79.5263 64.8858 79.66 64.6209 79.66 64.3804C79.66 64.1421 79.8 63.8617 80.0212 63.6563C80.5784 63.1397 80.4618 62.4964 79.8203 62.5475C79.5508 62.5692 79.2515 62.7074 79.1178 62.873C78.9446 63.0865 78.66 63.181 78.0122 63.2398C77.5327 63.2832 77.14 63.3686 77.14 63.4295C77.14 63.6773 75.8992 64.3822 75.7596 64.2138C75.4127 63.7956 75.4278 63.3063 75.7974 62.985C76.1026 62.7193 76.16 62.5517 76.16 61.9238C76.16 61.3029 76.2184 61.1272 76.51 60.8738C76.7291 60.6834 76.86 60.4216 76.86 60.1738C76.86 59.9263 76.9909 59.6642 77.21 59.4738C77.4291 59.2834 77.56 59.0216 77.56 58.7738C77.56 58.5263 77.6909 58.2642 77.91 58.0738C78.1291 57.8834 78.26 57.6216 78.26 57.3738C78.26 57.1263 78.3909 56.8642 78.61 56.6738C78.8249 56.4872 78.96 56.2209 78.96 55.9846C78.96 55.706 79.1532 55.4131 79.6593 54.9248C80.165 54.4369 80.3586 54.1433 80.3593 53.864C80.3596 53.6277 80.4954 53.3603 80.71 53.1738C80.9231 52.9886 81.06 52.7205 81.06 52.4881C81.06 52.1987 81.3123 51.8592 82.1079 51.0783C82.8838 50.3171 83.1565 49.9541 83.1579 49.6804C83.1596 49.399 83.4939 48.9808 84.5572 47.9304C85.6103 46.8902 85.9551 46.4601 85.9572 46.185C85.961 45.6614 90.455 41.16 90.9734 41.16C91.2401 41.16 91.7574 40.7285 93.0709 39.41C94.4132 38.0632 94.8993 37.6597 95.1825 37.6579C95.4534 37.6565 95.8202 37.3807 96.5783 36.6079C97.3448 35.8271 97.7014 35.5597 97.9783 35.5593C98.2404 35.5586 98.5491 35.3521 99.0248 34.8593C99.513 34.3532 99.806 34.16 100.085 34.16C100.321 34.16 100.587 34.0249 100.774 33.81C100.964 33.5909 101.226 33.46 101.474 33.46C101.722 33.46 101.983 33.3291 102.174 33.11C102.37 32.8846 102.625 32.76 102.891 32.76C103.118 32.76 103.342 32.697 103.39 32.62C103.446 32.5294 102.796 32.48 101.542 32.48C99.8018 32.48 99.5907 32.5063 99.4434 32.7425C99.1123 33.2728 96.7834 33.2798 96.1397 32.7527L95.83 32.4989L96.39 32.2662C96.698 32.1381 97.2548 31.724 97.6276 31.3467C98.1102 30.8574 98.4151 30.66 98.6874 30.66C98.9205 30.66 99.1882 30.5235 99.3737 30.31C99.5641 30.0909 99.8263 29.96 100.074 29.96C100.322 29.96 100.583 29.8291 100.774 29.61C100.964 29.3909 101.226 29.26 101.474 29.26C101.722 29.26 101.983 29.1291 102.174 28.91C102.364 28.6909 102.626 28.56 102.874 28.56C103.122 28.56 103.383 28.4291 103.574 28.21C103.764 27.9909 104.026 27.86 104.274 27.86C104.522 27.86 104.783 27.7291 104.974 27.51C105.227 27.2185 105.403 27.16 106.024 27.16C106.645 27.16 106.82 27.1016 107.074 26.81C107.361 26.4793 107.458 26.46 108.814 26.4586L110.25 26.4569L110.716 25.977L111.183 25.4968L110.647 25.3964C110.27 25.3257 109.938 25.1132 109.53 24.6817C109.121 24.2487 108.799 24.0429 108.44 23.9845C108.154 23.9383 107.869 23.7895 107.793 23.6467C107.718 23.5067 107.421 23.3478 107.134 23.2939C106.771 23.226 106.432 23.0069 106.03 22.5817C105.621 22.1487 105.299 21.9429 104.94 21.8845C104.649 21.8372 104.369 21.6895 104.29 21.5418C104.207 21.3864 103.926 21.2461 103.591 21.1922C103.255 21.1386 102.974 20.9983 102.891 20.8422C102.807 20.6864 102.527 20.5461 102.191 20.4922C101.876 20.4418 101.573 20.2972 101.501 20.1618C101.41 19.9917 101.115 19.8944 100.491 19.8293C99.8434 19.7617 99.5536 19.6627 99.3965 19.4551C99.2792 19.2997 98.946 19.1342 98.6562 19.0873C98.3664 19.04 98.0714 18.8934 98.0007 18.7614C97.91 18.5917 97.6136 18.4944 96.9909 18.4293C96.3791 18.3656 96.0459 18.2574 95.9 18.0761C95.7572 17.8983 95.4212 17.7853 94.85 17.7233C94.2844 17.6617 93.9414 17.5473 93.8 17.3733C93.6586 17.199 93.3156 17.0849 92.75 17.0233C92.183 16.9614 91.8417 16.8476 91.7 16.6726C91.5365 16.4707 91.2289 16.3968 90.3091 16.338C89.3609 16.2778 89.0855 16.2089 88.9091 15.988C88.733 15.7675 88.4576 15.6986 87.5091 15.638C86.5539 15.5775 86.2865 15.5099 86.1091 15.2845C85.9145 15.0374 85.6824 15.0003 84.0227 14.9527C82.3049 14.9034 82.1369 14.8747 81.9227 14.595C81.697 14.3 81.5902 14.2898 78.3058 14.2506C75.0169 14.2111 74.9126 14.2013 74.5871 13.895C74.2336 13.5625 66.36 13.3798 66.36 13.7039ZM89.3371 27.3854C89.5534 27.5811 89.5611 27.6504 89.397 27.9104C89.2927 28.0753 89.1625 28.4305 89.1075 28.7C89.0442 29.0087 88.7883 29.4014 88.4156 29.7616C87.8867 30.2726 87.815 30.421 87.7387 31.1616C87.6795 31.7366 87.5707 32.0569 87.3834 32.2088C87.235 32.3292 87.0674 32.6442 87.0107 32.9088C86.7471 34.1397 86.0104 34.0921 84.7094 32.76C84.183 32.221 83.7168 31.78 83.6731 31.78C83.3766 31.78 78.6929 36.7231 78.604 37.1298C78.5368 37.4374 78.1893 37.8991 77.5558 38.5221C76.9107 39.1563 76.5758 39.6039 76.5075 39.9221C76.4473 40.2028 76.1677 40.6214 75.8082 40.9686C75.4467 41.3179 75.1695 41.734 75.1082 42.0186C75.047 42.3045 74.7691 42.7203 74.4019 43.0749C73.9994 43.4634 73.7649 43.8284 73.7019 44.163C73.6501 44.4402 73.4944 44.7461 73.3558 44.8431C73.2172 44.9404 73.0597 45.2554 73.0058 45.5431C72.9519 45.8311 72.7989 46.144 72.6659 46.2385C72.5039 46.3533 72.3961 46.6872 72.3387 47.25C72.2799 47.8289 72.1714 48.1565 71.9894 48.3039C71.8081 48.4509 71.6985 48.7795 71.6394 49.3539C71.5802 49.9282 71.4707 50.2569 71.2894 50.4039C71.1081 50.5509 70.9985 50.8795 70.9394 51.4539C70.8788 52.0412 70.7717 52.3562 70.5796 52.5119C70.3332 52.7118 70.3013 52.9533 70.2579 54.9395C70.2124 57.0287 70.1935 57.1585 69.895 57.4C69.426 57.7794 69.4067 61.3109 69.8722 61.62C70.266 61.8814 70.3017 63.0091 69.9293 63.4207C69.7102 63.6629 69.6433 63.6752 69.4522 63.51C69.3301 63.4039 68.8205 63.2769 68.32 63.2275C67.676 63.1638 67.3487 63.0606 67.2 62.8754C67.0351 62.6696 66.7345 62.5972 65.801 62.5377C64.8018 62.474 64.5813 62.4155 64.4189 62.1709C64.2491 61.915 64.0853 61.88 63.0528 61.88C61.8999 61.88 61.6147 62.0081 62.1414 62.2899C62.2982 62.3739 62.4382 62.6535 62.4921 62.9906C62.546 63.3259 62.6864 63.6069 62.8418 63.6902C62.9895 63.7693 63.1372 64.0493 63.1844 64.3398C63.2429 64.6993 63.4487 65.0213 63.8816 65.4304C64.3247 65.849 64.5246 66.1665 64.5998 66.5704C64.6569 66.878 64.7934 67.2301 64.9029 67.3523C65.0772 67.5465 65.065 67.6085 64.8063 67.8423C64.3426 68.2619 52.8657 68.2581 52.5588 67.8384C52.2476 67.4128 52.3138 66.8185 52.71 66.4738C53.0015 66.2204 53.06 66.0447 53.06 65.4238C53.06 64.8029 53.1184 64.6272 53.41 64.3738C53.6263 64.1858 53.76 63.9209 53.76 63.6804C53.76 63.4361 53.9028 63.1589 54.1436 62.9356L54.5272 62.58H53.9672C53.5713 62.58 53.3592 62.657 53.2434 62.8425C53.1531 62.9871 52.8409 63.1498 52.5493 63.2048C52.2581 63.2594 51.9351 63.4246 51.8318 63.5719C51.569 63.9475 50.6061 63.9454 50.4049 63.5691C50.1581 63.1078 50.239 62.5965 50.61 62.2738C50.9015 62.0204 50.96 61.8447 50.96 61.2238C50.96 60.6029 51.0184 60.4272 51.31 60.1738C51.6015 59.9204 51.66 59.7447 51.66 59.1238C51.66 58.5029 51.7184 58.3272 52.01 58.0738C52.2291 57.8834 52.36 57.6216 52.36 57.3738C52.36 57.1263 52.4909 56.8642 52.71 56.6738C52.9249 56.4872 53.06 56.2209 53.06 55.9846C53.06 55.706 53.2532 55.4131 53.7593 54.9248C54.265 54.4369 54.4586 54.1433 54.4593 53.864C54.4596 53.6277 54.5954 53.3603 54.81 53.1738C55.0231 52.9886 55.16 52.7205 55.16 52.4881C55.16 52.1987 55.4123 51.8592 56.2079 51.0783C56.9761 50.3244 57.2565 49.9527 57.2579 49.6853C57.261 49.1502 65.9501 40.4611 66.4853 40.4579C66.7527 40.4565 67.1244 40.1762 67.8783 39.4079C68.6448 38.6271 69.0014 38.3597 69.2783 38.3593C69.5404 38.3586 69.8491 38.1521 70.3248 37.6593C70.8036 37.163 71.1084 36.9597 71.3748 36.9593C71.6411 36.9586 71.946 36.7556 72.4248 36.2593C72.9036 35.763 73.2084 35.5597 73.4748 35.5593C73.7411 35.5586 74.046 35.3556 74.5248 34.8593C75.013 34.3532 75.306 34.16 75.5846 34.16C75.8208 34.16 76.0872 34.0249 76.2737 33.81C76.4697 33.5846 76.7252 33.46 76.9909 33.46C77.2177 33.46 77.4424 33.397 77.49 33.32C77.6961 32.9865 75.1737 33.1569 74.8996 33.495C74.5444 33.9339 72.1682 33.9721 71.6978 33.5465L71.4066 33.2826L71.7577 32.8465C72.5875 31.8143 73.1136 31.36 73.4793 31.3593C73.7401 31.3586 74.0498 31.1514 74.5248 30.6593C75.013 30.1532 75.306 29.96 75.5846 29.96C75.8208 29.96 76.0872 29.8249 76.2737 29.61C76.4641 29.3909 76.7263 29.26 76.9737 29.26C77.2215 29.26 77.4833 29.1291 77.6737 28.91C77.9271 28.6185 78.1028 28.56 78.7237 28.56C79.3446 28.56 79.5203 28.5016 79.7737 28.21C80.0499 27.8926 80.1797 27.86 81.1737 27.86C82.1681 27.86 82.2976 27.8275 82.5737 27.51L82.8782 27.16H85.9831C88.641 27.16 89.1236 27.1926 89.3371 27.3854ZM12.2034 70.4428L12.81 71.0252V76.3042V81.5829L12.1964 82.1964L11.5825 82.81H9.76986C7.32371 82.81 7.55996 83.4694 7.55996 76.6399V71.0129L8.13641 70.4365L8.71286 69.86H10.1549H11.5972L12.2034 70.4428ZM17.8034 70.4428L18.41 71.0252V76.3042V81.5829L17.7964 82.1964L17.1825 82.81H15.3699C12.9237 82.81 13.16 83.4694 13.16 76.6399V71.0129L13.7364 70.4365L14.3129 69.86H15.7549H17.1972L17.8034 70.4428ZM23.4034 70.4428L24.01 71.0252V76.6675C24.01 83.4761 24.2585 82.81 21.7175 82.81H19.9251L19.3424 82.2035L18.76 81.5973V76.3049V71.0129L19.3364 70.4365L19.9129 69.86H21.3549H22.7972L23.4034 70.4428ZM29.0034 70.4428L29.61 71.0252V76.6675C29.61 83.5317 29.9243 82.81 26.9335 82.81C24.0614 82.81 24.36 83.5261 24.36 76.6399V71.0129L24.9364 70.4365L25.5129 69.86H26.9549H28.3972L29.0034 70.4428ZM34.6034 70.4428L35.21 71.0252V76.6675C35.21 83.5317 35.5243 82.81 32.5335 82.81C29.6614 82.81 29.96 83.5261 29.96 76.6399V71.0129L30.5364 70.4365L31.1129 69.86H32.5549H33.9972L34.6034 70.4428ZM40.2034 70.4428L40.81 71.0252V76.3042V81.5829L40.1964 82.1964L39.5825 82.81H37.7699C35.3237 82.81 35.56 83.4694 35.56 76.6399V71.0129L36.1364 70.4365L36.7129 69.86H38.1549H39.5972L40.2034 70.4428ZM44.5067 70.56C44.9536 71.0164 45.3096 71.26 45.5294 71.26C46.4278 71.26 46.41 71.1508 46.41 76.6203V81.5829L45.7964 82.1964L45.1825 82.81H43.3699C40.9237 82.81 41.16 83.4694 41.16 76.6399V71.0129L41.7364 70.4365C42.6331 69.5398 43.5477 69.5804 44.5067 70.56ZM57.0034 70.4428L57.61 71.0252V76.6675C57.61 83.4761 57.8585 82.81 55.3175 82.81H53.5251L52.9424 82.2035L52.36 81.5973V76.3049V71.0129L52.9364 70.4365L53.5129 69.86H54.9549H56.3972L57.0034 70.4428ZM63.3034 70.4428L63.91 71.0252V76.3042V81.5829L63.2964 82.1964L62.6825 82.81H60.8699C58.4188 82.81 58.66 83.5226 58.66 76.2832C58.66 69.1341 58.4069 69.86 60.8986 69.86H62.6972L63.3034 70.4428ZM68.5555 70.8005L69.51 71.7406V76.6619V81.5829L68.8964 82.1964L68.2825 82.81H66.4699C64.0237 82.81 64.26 83.4694 64.26 76.6399V71.0129L64.8364 70.4365L65.4129 69.86H66.507H67.6011L68.5555 70.8005ZM80.1034 70.4428L80.71 71.0252V76.6675C80.71 83.4761 80.9585 82.81 78.4175 82.81H76.6251L76.0424 82.2035L75.46 81.5973V78.7378V75.8783L75.81 75.5738C76.1274 75.2976 76.16 75.1681 76.16 74.1738C76.16 73.1798 76.1925 73.0499 76.51 72.7738C76.8271 72.4983 76.86 72.3674 76.86 71.3846C76.86 69.957 76.958 69.86 78.3986 69.86C79.4969 69.86 79.4972 69.86 80.1034 70.4428ZM86.0384 70.0588C86.2998 70.2499 86.31 70.4799 86.31 76.2836C86.31 83.5356 86.5648 82.81 84.0175 82.81H82.2251L81.6424 82.2035L81.06 81.5973V76.3049V71.0129L81.6364 70.4365L82.2129 69.86H83.9898C85.303 69.86 85.8375 69.9118 86.0384 70.0588ZM91.3034 70.4428L91.91 71.0252V76.6675C91.91 83.4761 92.1585 82.81 89.6175 82.81H87.8251L87.2424 82.2035L86.66 81.5973V76.3049V71.0129L87.2364 70.4365L87.8129 69.86H89.2549H90.6972L91.3034 70.4428ZM108.803 70.4428L109.41 71.0252V76.3042V81.5829L108.796 82.1964L108.183 82.81H106.37C103.919 82.81 104.16 83.5226 104.16 76.2832C104.16 69.1341 103.907 69.86 106.399 69.86H108.197L108.803 70.4428ZM114.403 70.4428L115.01 71.0252V76.3042V81.5829L114.396 82.1964L113.783 82.81H111.97C109.524 82.81 109.76 83.4694 109.76 76.6399V71.0129L110.336 70.4365L110.913 69.86H112.355H113.797L114.403 70.4428ZM120.003 70.4428L120.61 71.0252V76.3042V81.5829L119.996 82.1964L119.383 82.81H117.57C115.124 82.81 115.36 83.4694 115.36 76.6399V71.0129L115.936 70.4365L116.513 69.86H117.955H119.397L120.003 70.4428ZM125.938 70.0588C126.2 70.2499 126.21 70.4799 126.21 76.2836C126.21 83.5356 126.465 82.81 123.917 82.81H122.125L121.542 82.2035L120.96 81.5973V76.3049V71.0129L121.536 70.4365L122.113 69.86H123.89C125.203 69.86 125.737 69.9118 125.938 70.0588ZM131.903 70.4428L132.51 71.0252V76.3042V81.5829L131.896 82.1964L131.283 82.81H129.47C127.024 82.81 127.26 83.4694 127.26 76.6399V71.0129L127.836 70.4365L128.413 69.86H129.855H131.297L131.903 70.4428ZM102.918 70.3714C103.251 70.7725 103.196 82.2238 102.86 82.5601C102.646 82.774 102.351 82.81 100.817 82.81H99.0251L98.4424 82.2035L97.86 81.5973V78.7486C97.86 76.3455 97.8943 75.8657 98.0801 75.6802C98.4165 75.3435 99.0825 75.4054 99.4556 75.8076C99.8679 76.2528 99.96 76.1467 99.96 75.2259C99.96 74.6029 100.018 74.4275 100.31 74.1738C100.602 73.9204 100.66 73.7447 100.66 73.1238C100.66 72.5029 100.718 72.3272 101.01 72.0738C101.226 71.8858 101.36 71.6209 101.36 71.3804C101.36 71.1662 101.439 70.9254 101.535 70.8456C102.477 70.062 102.62 70.013 102.918 70.3714ZM52.0086 72.2757C52.059 72.8336 52.0803 75.3197 52.0551 77.8001C52.0002 83.2986 52.228 82.81 49.7175 82.81H47.9251L47.3424 82.2035L46.76 81.5973V77.3486C46.76 72.6754 46.7628 72.66 47.6108 72.66C47.9195 72.66 48.1936 72.8361 48.7161 73.3698C49.7234 74.3985 50.1609 74.3362 50.2603 73.15C50.317 72.4724 50.4049 72.2369 50.7153 71.9313C50.9267 71.7231 51.1 71.4364 51.1 71.2943C51.1 70.0732 51.8854 70.9219 52.0086 72.2757ZM93.2883 71.1536C93.5312 71.3258 94.3064 72.0503 95.011 72.7636C95.922 73.6855 96.3896 74.06 96.6294 74.06C97.5082 74.06 97.51 74.0684 97.51 78.3836C97.51 83.2108 97.7175 82.81 95.2175 82.81H93.4251L92.8424 82.2035L92.26 81.5973V76.4894C92.26 70.5509 92.2817 70.4389 93.2883 71.1536ZM71.582 73.1602C71.6436 73.2701 71.8802 73.36 72.1077 73.36C72.4195 73.36 72.6904 73.5326 73.2067 74.06C73.6536 74.5164 74.0096 74.76 74.2294 74.76C75.0995 74.76 75.11 74.8073 75.11 78.7336C75.11 81.9809 75.0869 82.333 74.8597 82.5598C74.4653 82.9542 70.3489 82.9357 70.0588 82.5384C69.7511 82.1174 69.7665 72.8557 70.0756 72.4143L70.2912 72.1063L70.8806 72.5333C71.2047 72.7682 71.5204 73.0503 71.582 73.1602ZM18.48 87.577V88.074L19.285 88.032C20.0809 87.9904 20.0903 87.9848 20.1337 87.535L20.1778 87.08H19.3287H18.48V87.577ZM71.6499 88.2231C71.596 89.1544 71.5309 89.4089 71.2985 89.5968C71.0514 89.7971 71.0062 90.027 70.9576 91.3395C70.9075 92.6961 70.8697 92.8774 70.5908 93.1031C70.3727 93.2799 70.28 93.507 70.28 93.8644V94.374L71.085 94.332L71.89 94.29L71.96 93.0671C72.0209 92.001 72.0702 91.8162 72.345 91.6244C72.6376 91.42 72.66 91.2996 72.66 89.9413C72.66 88.5553 72.6785 88.4622 73.01 88.1738C73.711 87.5644 73.5017 87.08 72.5378 87.08H71.716L71.6499 88.2231ZM90.58 87.57C90.58 88.1353 91.2243 88.2805 91.7241 87.8279C91.9628 87.612 92.0118 87.6131 92.4371 87.8423C93.1255 88.213 93.5798 88.0961 93.6337 87.535L93.6778 87.08H92.1287H90.58V87.57ZM116.811 87.4335C116.554 87.7124 116.505 87.9669 116.457 89.2556C116.405 90.6686 116.381 90.7701 116.036 91.0515C115.497 91.4918 115.608 93.3702 116.21 93.9712L116.598 94.36H121.151C125.651 94.36 125.707 94.3565 125.915 94.059C126.039 93.8819 126.344 93.7227 126.656 93.6723C127.14 93.5935 127.193 93.5396 127.272 93.0559C127.323 92.7437 127.482 92.4389 127.659 92.3149C127.934 92.1221 127.96 91.9793 127.96 90.6419V89.18H126.076C123.906 89.18 123.48 89.3764 123.48 90.3763V90.86H124.231C124.767 90.86 125.083 90.7809 125.333 90.5842C126.028 90.0372 126.605 91.7147 125.948 92.3717C125.558 92.7623 117.946 92.7315 117.659 92.3384C117.286 91.8292 117.39 89.9392 117.81 89.5738C118.127 89.2976 118.16 89.1681 118.16 88.1748V87.08L117.635 87.0947C117.279 87.1049 117.014 87.2137 116.811 87.4335ZM82.5916 88.7869C82.4085 89.0351 82.187 89.0939 81.2294 89.1496L80.0859 89.2157L79.996 89.6959C79.9431 89.9776 79.7681 90.2661 79.5728 90.3942C79.2869 90.5814 79.24 90.7245 79.24 91.4081C79.24 92.5211 78.7199 92.8872 77.9845 92.2919L77.6779 92.0434L77.9688 91.7802C78.3744 91.413 78.3478 90.7634 77.91 90.3578C77.6842 90.1485 77.56 89.8821 77.56 89.6067V89.18H76.3763C75.0172 89.18 74.5734 89.4488 74.3991 90.3781C74.3431 90.6762 74.1727 90.9633 73.9735 91.0938C73.5504 91.371 73.6214 92.7521 74.0757 93.0822C74.221 93.1879 74.34 93.3412 74.34 93.423C74.34 93.505 74.4681 93.7083 74.6245 93.8749C74.8776 94.1444 74.8856 94.1976 74.6945 94.3561C74.5615 94.4664 74.48 94.7674 74.48 95.1471C74.48 96.048 75.0011 96.0165 75.9248 95.0593L76.5992 94.36L80.8248 94.3586L85.05 94.3568L85.505 93.8885C86.1301 93.2452 86.191 91.5964 85.61 91.0578C85.4042 90.867 85.26 90.5786 85.26 90.3578C85.26 90.1369 85.1158 89.8485 84.91 89.6578C84.6842 89.4485 84.56 89.1821 84.56 88.9067V88.48L83.685 88.4853C82.9594 88.4895 82.7725 88.5413 82.5916 88.7869ZM90.2832 89.4698C89.9668 89.8198 89.9069 90.0333 89.8499 91.021C89.7946 91.9776 89.734 92.2065 89.4817 92.4105C89.0354 92.772 89.0823 93.4437 89.5891 93.9509C90.0837 94.4451 91.2684 94.5406 91.7297 94.1231C91.9754 93.9008 92.0157 93.9008 92.3923 94.1231C92.7447 94.3313 93.2991 94.36 96.9815 94.36H101.17L101.474 94.01C101.674 93.7794 101.924 93.66 102.206 93.66C102.482 93.66 102.748 93.7839 102.958 94.01L103.282 94.36L108.166 94.3586L113.05 94.3568L113.505 93.8885C113.899 93.4832 113.96 93.3233 113.96 92.6993C113.96 92.1046 114.021 91.9247 114.31 91.6737C114.627 91.3976 114.66 91.2681 114.66 90.2748V89.18H112.776H110.893L110.8 89.6735C110.749 89.9447 110.599 90.244 110.466 90.3385C110.305 90.4529 110.196 90.7858 110.14 91.3371C110.011 92.6072 110.004 92.61 107.25 92.61C104.688 92.61 103.843 92.3804 104.536 91.874C104.741 91.7238 104.799 91.4476 104.839 90.4341L104.888 89.18H102.284H99.68V90.3942C99.68 91.2797 99.737 91.671 99.891 91.8414C100.436 92.4437 99.7682 92.61 96.8019 92.61C93.5343 92.61 93.752 92.744 93.66 90.6787L93.59 89.11L92.12 89.0869C90.6629 89.0638 90.6468 89.0673 90.2832 89.4698ZM16.0114 89.5335C15.7542 89.8125 15.7048 90.0669 15.6572 91.3546C15.6075 92.6958 15.5694 92.8778 15.2908 93.1031C14.7843 93.5134 14.8428 94.8042 15.3926 95.354L15.8049 95.7666L18.2952 95.7281L20.7854 95.69L20.8729 95.1503C20.9909 94.4237 21.1309 94.3645 22.7356 94.3621L24.1213 94.36L24.9378 93.555L25.754 92.75L25.7572 91.3742C25.76 90.0386 25.7481 89.9864 25.3508 89.5891C24.8188 89.0575 24.8328 89.0484 24.7362 89.985C24.6785 90.5468 24.5696 90.8579 24.3768 91.014C24.2249 91.1376 24.0579 91.4659 24.0054 91.7441C23.8756 92.4364 23.6215 92.6023 22.7111 92.5893C21.5582 92.5725 21.1102 91.6692 21.91 90.9737C22.5802 90.391 21.9856 89.18 21.0287 89.18H20.616L20.5499 90.3231C20.4963 91.2454 20.4298 91.5096 20.2044 91.6919C20.0084 91.8508 19.9006 92.1582 19.8422 92.7262C19.6101 94.9732 16.66 95.6186 16.66 93.4223C16.66 92.8028 16.7188 92.6271 17.01 92.3737C17.5682 91.8883 17.5318 90.1705 16.9508 89.5891C16.4706 89.1093 16.4059 89.1055 16.0114 89.5335ZM27.58 89.67V90.16H28.3234C29.3657 90.16 29.5753 90.3532 29.5893 91.3266C29.6054 92.4368 29.4332 92.5736 27.9212 92.653L26.7123 92.7164L26.796 93.1357C26.8422 93.3663 26.88 93.7363 26.88 93.9575V94.36H28.0483C29.0332 94.36 29.2558 94.3166 29.4665 94.0842C29.715 93.8095 29.7178 93.8095 30.0671 94.0842C30.3905 94.3387 30.6439 94.36 33.3172 94.36C36.0248 94.36 36.233 94.3418 36.4665 94.0842C36.715 93.8095 36.7178 93.8095 37.0671 94.0842C37.3453 94.303 37.6348 94.36 38.4695 94.36H39.5213L40.3378 93.555L41.154 92.75L41.1572 90.965L41.16 89.18H39.6263C37.7408 89.18 37.4738 89.3508 37.3404 90.6423C37.269 91.3353 37.1854 91.5075 36.6709 92.022L36.0829 92.61H33.7361C31.0054 92.61 30.5203 92.4497 31.0842 91.7329C31.5318 91.1638 31.466 90.1043 30.9508 89.5891C30.5501 89.1884 30.5109 89.18 29.0608 89.18H27.58V89.67ZM43.3016 89.5433C43.1319 89.7267 42.9509 90.1015 42.8995 90.3763C42.8431 90.6766 42.673 90.9629 42.4728 91.0942C41.972 91.4225 41.9832 92.7108 42.49 93.043C42.6825 93.169 42.84 93.3398 42.84 93.422C42.84 93.5046 42.9681 93.7083 43.1245 93.8749C43.3776 94.1444 43.3856 94.1976 43.1945 94.3561C43.0615 94.4664 42.98 94.7674 42.98 95.1471C42.98 96.048 43.5011 96.0165 44.4248 95.0593L45.0992 94.36L48.6248 94.3572L52.15 94.3541L52.955 93.5379L53.76 92.7213V91.3598C53.76 90.0417 53.747 89.9854 53.3508 89.5891C52.8188 89.0575 52.8328 89.0484 52.7362 89.985C52.6785 90.5468 52.5696 90.8579 52.3768 91.014C52.2249 91.1376 52.0579 91.4659 52.0054 91.7441C51.8497 92.575 51.7342 92.61 49.1333 92.61C46.4058 92.61 45.9207 92.4493 46.4842 91.7329C46.8587 91.2569 46.8314 90.748 46.41 90.3578C46.1842 90.1485 46.06 89.8821 46.06 89.6067V89.18L44.835 89.1947C43.7342 89.208 43.5788 89.2434 43.3016 89.5433ZM62.3409 89.4464C62.245 89.6 61.9346 89.7537 61.6073 89.8086C61.0746 89.8989 61.04 89.9336 61.04 90.3791C61.04 90.7309 60.9493 90.9128 60.69 91.083C60.3529 91.3038 60.34 91.3668 60.34 92.8081C60.34 94.6473 59.9725 95.1108 59.0845 94.3919L58.7779 94.1433L59.0688 93.8801C59.3295 93.6443 59.36 93.458 59.36 92.1039C59.36 90.6349 59.3712 90.5811 59.7436 90.2356L60.1272 89.88H59.2599H58.3926L58.3002 90.3735C58.2491 90.6448 58.0965 90.9447 57.961 91.0396C57.7577 91.182 57.7041 91.4809 57.6579 92.7318C57.6075 94.0961 57.5701 94.2771 57.2908 94.5032C56.8351 94.8721 56.8774 95.5392 57.3891 96.0508L57.7983 96.46H60.2094H62.6202L63.0885 96.005C63.5022 95.6032 63.5572 95.4636 63.5586 94.8139C63.5596 94.2046 63.6202 94.0257 63.91 93.7738C64.6012 93.1728 64.4 92.7343 63.385 92.6296C61.405 92.4249 61.9682 90.3336 64.05 90.16C64.8788 90.0911 64.8907 90.0837 64.9337 89.635L64.9778 89.18H63.7427C62.6797 89.18 62.4841 89.2171 62.3409 89.4464ZM67.4499 90.3231C67.396 91.2545 67.3309 91.5089 67.0988 91.6969C66.942 91.8235 66.767 92.1441 66.71 92.4088C66.6365 92.7489 66.3082 93.1801 65.5907 93.8794L64.5757 94.8686L65.044 95.3145C65.3016 95.5594 65.6495 95.76 65.8168 95.76C66.2833 95.76 67.7533 94.248 67.7572 93.764C67.7589 93.5294 67.8972 93.2589 68.11 93.0737C68.4015 92.8204 68.46 92.6446 68.46 92.0238C68.46 91.4028 68.5184 91.2271 68.81 90.9737C69.4802 90.391 68.8856 89.18 67.9287 89.18H67.516L67.4499 90.3231ZM102.769 90.3049C103.321 90.6003 103.137 91.475 102.421 91.958C101.65 92.4784 101.36 92.2834 101.36 91.2439C101.36 90.2857 101.971 89.8779 102.769 90.3049ZM39.34 91.35C39.34 92.015 38.913 92.5187 38.634 92.1826C38.3803 91.8771 38.3887 90.8128 38.6473 90.5013C38.9123 90.1817 39.34 90.706 39.34 91.35ZM82.04 91.35C82.04 92.015 81.613 92.5187 81.334 92.1826C81.0803 91.8771 81.0887 90.8128 81.3473 90.5013C81.6123 90.1817 82.04 90.706 82.04 91.35ZM112.84 91.35C112.84 92.015 112.413 92.5187 112.134 92.1826C111.88 91.8771 111.889 90.8128 112.147 90.5013C112.412 90.1817 112.84 90.706 112.84 91.35ZM92.3951 90.7109C92.6719 91.2282 92.5571 91.5285 91.9184 91.9597C91.2467 92.413 91.1039 92.3724 90.93 91.68C90.8712 91.4452 90.9051 91.2555 91.0238 91.1558C91.9793 90.3553 92.1714 90.293 92.3951 90.7109ZM44.8 91.7C44.8 92.176 44.5042 92.4683 44.2645 92.2285C43.8767 91.8407 44.2095 90.8243 44.6145 91.1603C44.7167 91.245 44.8 91.4879 44.8 91.7ZM76.3 91.7C76.3 92.176 76.0042 92.4683 75.7645 92.2285C75.3767 91.8407 75.7095 90.8243 76.1145 91.1603C76.2167 91.245 76.3 91.4879 76.3 91.7ZM84 91.7C84 92.176 83.7042 92.4683 83.4645 92.2285C83.0767 91.8407 83.4095 90.8243 83.8145 91.1603C83.9167 91.245 84 91.4879 84 91.7ZM21.9128 95.4754C21.6615 95.8821 21.994 96.4768 22.4479 96.4331C23.1234 96.3673 23.1238 95.4327 22.4483 95.367C22.205 95.3435 21.9642 95.3922 21.9128 95.4754ZM23.9946 95.5399C23.7968 96.0554 23.9956 96.39 24.5 96.39C25.1282 96.39 25.3393 95.5874 24.7523 95.4303C24.255 95.297 24.0779 95.3225 23.9946 95.5399ZM51.065 95.7789C50.5207 96.3956 50.5746 96.4796 51.485 96.432L52.29 96.39V95.9C52.29 95.201 51.632 95.1359 51.065 95.7789ZM124.18 95.9C124.18 96.6515 124.722 96.6917 125.403 95.9903C125.952 95.425 125.89 95.34 124.927 95.34H124.18V95.9ZM59.08 97.6451C59.08 97.7634 58.9564 97.9836 58.8052 98.1348C58.4398 98.5002 58.8903 98.5919 60.76 98.5323L62.09 98.49V98V97.51L60.585 97.4701C59.3085 97.4365 59.08 97.4631 59.08 97.6451ZM58.6071 100.818C58.1129 101.312 58.122 102.484 58.6232 102.885C58.7776 103.009 58.9449 103.331 58.9946 103.6C59.0446 103.87 59.2189 104.191 59.3817 104.315C59.619 104.495 59.6806 104.698 59.6897 105.329C59.7058 106.458 59.5133 106.611 58.0807 106.606C56.6086 106.601 56.56 106.538 56.56 104.642C56.56 103.433 56.518 103.164 56.2821 102.864C55.9636 102.459 56.0917 102.263 56.7959 102.076C57.1088 101.993 57.1991 101.88 57.2337 101.526L57.2778 101.08H56.4448H55.6118L55.5569 102.566C55.5089 103.858 55.4641 104.082 55.2135 104.285C55.0063 104.453 54.9017 104.749 54.8404 105.341C54.7113 106.595 54.6801 106.61 52.1335 106.61C49.4665 106.61 49.56 106.68 49.56 104.683C49.56 102.907 49.2523 102.48 47.9717 102.48H47.202L46.0712 103.598C44.7629 104.89 44.4972 105.824 45.29 106.343C45.4825 106.469 45.64 106.64 45.64 106.722C45.64 106.805 45.7681 107.008 45.9245 107.175C46.1776 107.444 46.1856 107.498 45.9945 107.656C45.6214 107.966 45.7198 108.882 46.1755 109.337L46.5706 109.732L47.5405 108.731L48.51 107.73L60.5475 107.66L72.5854 107.59L72.6719 107.058C72.7226 106.744 72.8815 106.439 73.059 106.315C73.3344 106.122 73.36 105.979 73.36 104.641C73.36 103.255 73.3785 103.162 73.71 102.874C74.0012 102.62 74.06 102.445 74.06 101.825V101.08H73.2357H72.4118L72.3569 102.566C72.3089 103.858 72.2641 104.082 72.0135 104.285C71.8063 104.453 71.7017 104.749 71.6404 105.341C71.5298 106.414 71.3293 106.604 70.3265 106.589C69.1134 106.572 68.607 105.104 69.5212 104.256C70.0742 103.744 69.959 103.125 69.3 103.067C68.6542 103.011 68.46 102.723 68.46 101.823V101.08H67.97C67.3512 101.08 67.2329 101.862 67.795 102.235C68.0883 102.43 68.11 102.545 68.11 103.913V105.383L67.4964 105.996L66.8825 106.61H64.3699C61.4806 106.61 61.46 106.601 61.46 105.374C61.46 104.816 61.3924 104.62 61.11 104.358C60.375 103.677 60.6564 102.218 61.5503 102.074L62.09 101.987L62.132 101.183L62.174 100.38L60.592 100.398C59.0471 100.416 59.0005 100.425 58.6071 100.818ZM75.8499 101.523C75.796 102.454 75.7309 102.709 75.4985 102.897C75.2514 103.097 75.2062 103.327 75.1576 104.64C75.1075 105.996 75.0697 106.177 74.7908 106.403C74.5727 106.58 74.48 106.807 74.48 107.164V107.674L75.285 107.632L76.09 107.59L76.16 106.718C76.216 106.019 76.2926 105.802 76.545 105.625C76.8376 105.42 76.86 105.3 76.86 103.941C76.86 102.555 76.8785 102.462 77.21 102.174C77.5012 101.92 77.56 101.745 77.56 101.125V100.38H76.7378H75.916L75.8499 101.523ZM16.3362 101.885C16.2792 102.439 16.1689 102.758 15.9834 102.909C15.7545 103.094 15.7052 103.357 15.6576 104.64C15.6075 105.996 15.5697 106.177 15.2908 106.403C14.8942 106.724 14.8981 106.76 15.3891 107.251L15.7983 107.66L22.7741 107.657L29.75 107.654L30.5343 106.852C31.2123 106.159 31.3313 105.955 31.4111 105.354C31.5934 103.977 32.1968 103.977 32.3109 105.354C32.3634 105.983 32.4415 106.18 32.7082 106.355C32.8905 106.474 33.04 106.64 33.04 106.722C33.04 106.805 33.1681 107.008 33.3245 107.175C33.5776 107.444 33.5856 107.498 33.3945 107.656C33.0214 107.966 33.1198 108.882 33.5755 109.337L33.9706 109.732L34.9405 108.731L35.91 107.73L39.5479 107.66L43.1854 107.59L43.2719 107.058C43.323 106.744 43.4815 106.439 43.659 106.315C43.9344 106.122 43.96 105.979 43.96 104.641C43.96 103.255 43.9785 103.162 44.31 102.874C44.6012 102.62 44.66 102.445 44.66 101.825V101.08H43.8357H43.0118L42.9569 102.566C42.9089 103.858 42.8641 104.082 42.6135 104.285C42.4063 104.453 42.3017 104.749 42.2404 105.341C42.1113 106.595 42.0801 106.61 39.5335 106.61C36.8665 106.61 36.96 106.68 36.96 104.683C36.96 103.34 36.9477 103.286 36.5508 102.889C35.8785 102.217 34.7679 102.286 34.0301 103.046C32.7834 104.331 32.06 104.521 32.06 103.563C32.06 102.817 31.3453 102.48 29.7675 102.48H28.2933L27.5866 103.187C27.0105 103.763 26.88 103.983 26.88 104.377V104.86H27.6248C28.2516 104.86 28.4193 104.803 28.6849 104.497C28.9345 104.21 29.078 104.154 29.3744 104.229C29.9726 104.379 30.1448 104.577 29.9089 104.845C29.7997 104.969 29.667 105.334 29.6142 105.657C29.4675 106.552 29.3251 106.61 27.2667 106.61C25.0201 106.61 25.06 106.645 25.06 104.683C25.06 103.34 25.0477 103.286 24.6508 102.889C24.1346 102.373 24.1122 102.376 24.0002 102.973C23.9491 103.245 23.7989 103.544 23.6659 103.639C23.5056 103.752 23.3964 104.084 23.3415 104.622C23.2683 105.339 23.1899 105.503 22.6705 106.022L22.0825 106.61H19.9199C17.2175 106.61 17.36 106.74 17.36 104.272C17.36 102.533 17.3708 102.469 17.71 102.174C18.4103 101.565 18.2017 101.08 17.2396 101.08H16.4192L16.3362 101.885ZM69.4662 101.535C69.5065 101.953 69.5495 101.99 70 101.99C70.4504 101.99 70.4935 101.953 70.5337 101.535C70.5768 101.088 70.5673 101.08 70 101.08C69.4326 101.08 69.4232 101.088 69.4662 101.535ZM104.557 102.566C104.509 103.858 104.464 104.082 104.214 104.285C104.006 104.453 103.902 104.749 103.84 105.341C103.711 106.595 103.68 106.61 101.134 106.61C98.4665 106.61 98.56 106.68 98.56 104.683C98.56 102.907 98.2523 102.48 96.9717 102.48H96.202L95.0712 103.598C93.7629 104.89 93.4972 105.824 94.29 106.343C94.4825 106.469 94.64 106.64 94.64 106.722C94.64 106.805 94.7681 107.008 94.9245 107.175C95.1776 107.444 95.1856 107.498 94.9945 107.656C94.6221 107.965 94.7198 108.882 95.1737 109.335L95.5678 109.729L96.5874 108.695L97.6069 107.66L111.978 107.659L126.35 107.657L126.805 107.189C127.218 106.764 127.26 106.64 127.26 105.865C127.26 104.946 127.427 104.725 128.126 104.716C128.413 104.712 128.422 104.696 128.205 104.569C127.746 104.301 127.853 101.891 128.344 101.436L128.727 101.08H127.873H127.019L126.936 101.885C126.88 102.435 126.769 102.759 126.586 102.907C126.375 103.077 126.306 103.363 126.253 104.264C126.154 105.979 124.503 107.388 123.905 106.269C123.578 105.658 123.726 103.208 124.11 102.874C124.401 102.62 124.46 102.445 124.46 101.825V101.08H123.636H122.812L122.757 102.566C122.709 103.858 122.664 104.082 122.414 104.285C122.206 104.453 122.102 104.749 122.04 105.341C121.908 106.625 121.946 106.61 118.8 106.61C116.342 106.61 116.062 106.586 115.798 106.346L115.507 106.083L115.854 105.646C116.045 105.406 116.327 105.082 116.481 104.925C116.936 104.461 116.868 103.407 116.351 102.889L115.942 102.48H113.761H111.58V104.044C111.58 105.242 111.629 105.663 111.791 105.841C111.981 106.051 111.972 106.102 111.706 106.342C111.25 106.755 106.061 106.752 105.759 106.338C105.373 105.811 105.486 103.243 105.91 102.874C106.201 102.62 106.26 102.445 106.26 101.825V101.08H105.436H104.612L104.557 102.566ZM78.9085 103.629L77.8067 104.746L77.8757 105.462C77.9264 105.989 78.0234 106.231 78.2421 106.377C78.4059 106.485 78.54 106.641 78.54 106.723C78.54 106.805 78.6681 107.008 78.8245 107.175C79.0776 107.444 79.0856 107.498 78.8945 107.656C78.7615 107.766 78.68 108.067 78.68 108.447V109.06L79.415 109.059C80.2774 109.057 81.06 108.434 81.06 107.749C81.06 107.528 81.2014 107.255 81.41 107.074C81.7015 106.82 81.76 106.645 81.76 106.024C81.76 105.403 81.8184 105.227 82.11 104.974C82.6535 104.501 82.5587 104.101 81.6991 103.241C80.6018 102.144 80.3365 102.18 78.9085 103.629ZM89.5139 102.831C89.2787 103.086 89.2041 103.386 89.1523 104.279C89.0785 105.552 88.4957 106.392 87.5395 106.602C87.165 106.684 87.0737 106.782 86.9981 107.184C86.9484 107.449 86.7965 107.745 86.661 107.84C86.4577 107.982 86.4041 108.281 86.3579 109.532C86.3075 110.896 86.2701 111.077 85.9908 111.303C85.4647 111.729 85.6037 111.878 86.485 111.832L87.29 111.79L87.36 110.918C87.416 110.218 87.4926 110.002 87.745 109.825C88.005 109.642 88.06 109.473 88.06 108.852C88.06 107.716 88.1625 107.66 90.2751 107.659L92.05 107.657L92.505 107.189L92.96 106.72V104.6V102.48L91.385 102.495C89.9311 102.508 89.7872 102.534 89.5139 102.831ZM91.6951 104.011C91.9338 104.457 91.8606 104.84 91.49 105.083C91.2975 105.209 91.14 105.424 91.14 105.561C91.14 106.032 90.6692 106.467 90.448 106.2C90.1708 105.866 90.0812 104.66 90.3192 104.46C91.2758 103.656 91.4711 103.593 91.6951 104.011ZM35.5257 104.49C35.666 104.627 35.5929 104.768 35.1634 105.187C34.5821 105.755 34.4155 105.719 34.231 104.984C34.0515 104.269 34.9482 103.927 35.5257 104.49ZM48.1257 104.49C48.266 104.627 48.1929 104.768 47.7634 105.187C47.1821 105.755 47.0155 105.719 46.831 104.984C46.6515 104.269 47.5482 103.927 48.1257 104.49ZM97.1257 104.49C97.266 104.627 97.1929 104.768 96.7634 105.187C96.1821 105.755 96.0155 105.719 95.831 104.984C95.6515 104.269 96.5482 103.927 97.1257 104.49ZM114.566 104.414C114.781 104.652 114.763 104.699 114.267 105.184L113.737 105.701L113.206 105.157L112.675 104.613L112.999 104.386C113.437 104.08 114.277 104.094 114.566 104.414ZM80.64 105.197C80.64 105.825 80.0051 106.038 79.3989 105.614L79.0755 105.387L79.6127 104.837L80.15 104.286L80.395 104.589C80.5297 104.755 80.64 105.029 80.64 105.197ZM21.28 109.209C21.28 109.764 21.2908 109.777 21.7241 109.734C22.6362 109.644 22.5823 108.647 21.665 108.642C21.3076 108.64 21.28 108.681 21.28 109.209ZM23.2792 108.749C22.8959 109.001 23.2851 109.69 23.8101 109.69C24.2651 109.69 24.29 109.665 24.29 109.2C24.29 108.692 23.7401 108.447 23.2792 108.749ZM27.965 109.079C27.4207 109.696 27.4746 109.78 28.385 109.732L29.19 109.69V109.2C29.19 108.501 28.532 108.436 27.965 109.079ZM18.1811 113.3C17.969 113.588 17.8199 113.614 16.1084 113.659C14.372 113.706 14.2443 113.729 13.9219 114.051C13.4729 114.5 13.4904 114.66 13.9884 114.66C14.2775 114.66 14.575 114.831 15.0034 115.242L15.61 115.825L15.6527 121.139L15.6957 126.453L16.7993 127.556L17.9032 128.66H18.7467C19.6458 128.66 19.88 128.834 19.88 129.501C19.88 129.773 19.8999 129.78 20.1001 129.58C20.2664 129.414 20.6181 129.36 21.5446 129.36C22.6765 129.36 22.7927 129.333 23.0737 129.01C23.3254 128.721 23.5056 128.66 24.1139 128.657C24.9914 128.654 26.46 127.397 26.46 126.65C26.46 126.428 26.601 126.155 26.81 125.974L27.16 125.67V119.675V113.68H26.3256H25.4912L25.4506 119.678L25.41 125.676L24.4426 126.643L23.4755 127.61H22.0503H20.6251L20.0427 127.003L19.46 126.397V119.688V112.98L18.935 112.985C18.5594 112.989 18.3449 113.079 18.1811 113.3ZM43.4434 113.243C43.3531 113.387 43.0545 113.547 42.7801 113.599C42.0976 113.727 40.9269 114.898 40.7988 115.58C40.7473 115.855 40.587 116.153 40.4425 116.243C40.0599 116.482 40.0585 118.085 40.4407 118.29C40.587 118.368 40.7368 118.647 40.782 118.924C40.8908 119.596 42.9177 121.66 43.4682 121.66C43.6779 121.66 43.9715 121.809 44.1577 122.01C44.3418 122.209 44.6379 122.36 44.8423 122.36C45.109 122.36 45.5374 122.692 46.4908 123.639L47.7792 124.917L47.79 125.655C47.7998 126.344 47.761 126.432 47.1915 127.001L46.5825 127.61H44.7632C43.0318 127.61 42.9338 127.595 42.735 127.295C42.5575 127.028 42.4011 126.98 41.7028 126.98H40.88V127.82V128.66H42.1351C43.4808 128.66 43.68 128.769 43.68 129.501C43.68 129.773 43.6999 129.78 43.9001 129.58C44.2095 129.27 46.3113 129.262 46.4292 129.57C46.5517 129.889 46.7519 129.821 46.6865 129.482C46.5671 128.862 46.8387 128.66 47.7897 128.66C48.5537 128.66 48.7095 128.614 48.9737 128.31C49.1599 128.096 49.4284 127.959 49.6639 127.959C50.3433 127.956 50.96 127.166 50.96 126.299C50.96 125.705 51.0212 125.525 51.31 125.274C51.5952 125.026 51.66 124.841 51.66 124.276C51.66 123.716 51.5924 123.52 51.31 123.258C51.1091 123.072 50.96 122.778 50.96 122.568C50.96 122.018 48.8957 119.991 48.2244 119.882C47.9521 119.838 47.6679 119.687 47.593 119.547C47.5181 119.407 47.2213 119.248 46.9336 119.194C46.5727 119.126 46.2325 118.908 45.837 118.489C45.4636 118.093 45.0975 117.851 44.7867 117.794C43.7573 117.603 43.59 116.208 44.485 115.276L45.01 114.73L47.25 114.66L49.49 114.59L49.5344 114.204C49.5666 113.924 49.463 113.701 49.1603 113.399L48.7417 112.98H46.1744C43.8158 112.98 43.5939 113.001 43.4434 113.243ZM89.5811 113.3C89.369 113.588 89.2195 113.614 87.5161 113.659L85.68 113.708V114.184C85.68 114.612 85.7192 114.66 86.0734 114.66C87.0544 114.66 87.0054 114.298 87.0513 121.863L87.0926 128.668L88.9413 128.629L90.79 128.59L90.86 124.91C90.9436 120.519 90.6108 120.965 93.8084 120.962C97.1222 120.959 96.7939 120.531 96.88 124.973L96.95 128.59H98.42H99.89L99.9264 121.135L99.9624 113.68H98.4315H96.9006L96.8551 116.545C96.797 120.221 97.0812 119.91 93.7835 119.91C90.5656 119.91 90.86 120.286 90.86 116.173V112.98L90.335 112.985C89.9594 112.989 89.7449 113.079 89.5811 113.3ZM63.28 115.24V116.799L63.7686 116.325C64.085 116.017 64.2575 115.718 64.2586 115.475C64.261 114.829 64.5778 114.66 65.7832 114.66C67.5671 114.66 67.4033 113.953 67.4513 121.863L67.4926 128.668L69.3413 128.629L71.19 128.59L71.26 121.76C71.3401 113.946 71.183 114.666 72.8084 114.662C74.1653 114.659 74.3144 114.772 74.4303 115.892L74.5213 116.775L74.9556 116.732L75.39 116.69L75.4299 115.185L75.4694 113.68H69.3749H63.28V115.24ZM112.98 113.82C112.98 113.897 113.157 113.96 113.373 113.96C114.358 113.96 114.305 113.556 114.351 121.508L114.392 128.66H118.981H123.57L123.874 128.31C124.126 128.02 124.305 127.96 124.914 127.959C125.777 127.957 126.56 127.334 126.56 126.649C126.56 126.428 126.701 126.155 126.91 125.974C127.225 125.7 127.26 125.565 127.26 124.626C127.26 123.692 127.223 123.548 126.91 123.258C126.708 123.071 126.56 122.778 126.56 122.566C126.56 122.084 125.872 121.401 125.274 121.291C124.084 121.071 124.162 120.299 125.508 118.978L126.556 117.95L126.558 116.926L126.56 115.902L125.79 115.132C125.24 114.581 124.88 114.34 124.525 114.282C124.247 114.237 123.968 114.087 123.89 113.941C123.729 113.641 112.98 113.522 112.98 113.82ZM122.103 115.243L122.71 115.825V117.251C122.71 118.857 122.62 119.06 121.844 119.205C121.566 119.258 121.227 119.438 121.091 119.605C120.874 119.874 120.709 119.91 119.698 119.906C118.142 119.901 118.16 119.931 118.16 117.233C118.16 114.559 118.086 114.66 120.049 114.66H121.497L122.103 115.243ZM121.158 121.31C121.34 121.507 121.638 121.66 121.84 121.66C122.068 121.66 122.415 121.87 122.803 122.243L123.41 122.825V124.254V125.683L122.85 126.243C122.527 126.565 122.086 126.847 121.809 126.908C121.544 126.966 121.219 127.148 121.086 127.312C120.743 127.736 118.662 127.753 118.356 127.334C118.051 126.918 118.072 121.487 118.38 121.18C118.779 120.781 120.753 120.873 121.158 121.31Z" fill="white"/>
</svg>
